<svg width="251" height="251" viewBox="0 0 251 251" fill="none" xmlns="http://www.w3.org/2000/svg">
<path d="M104.892 238.703L103.094 247.243L97.9768 246.148L98.17 245.23L102.254 246.104L102.861 243.219L99.161 242.427L99.3542 241.509L103.054 242.301L103.859 238.482L104.892 238.703Z" fill="black"/>
<path d="M90.4812 234.806C91.0418 234.993 91.4899 235.29 91.8255 235.698C92.1584 236.106 92.3647 236.589 92.4445 237.149C92.5215 237.707 92.4548 238.308 92.2443 238.95C92.032 239.598 91.7294 240.125 91.3366 240.53C90.941 240.934 90.4893 241.2 89.9812 241.327C89.4705 241.454 88.9348 241.423 88.3742 241.237C87.8135 241.05 87.3668 240.753 87.0339 240.346C86.6983 239.937 86.4924 239.453 86.4162 238.891C86.3374 238.329 86.4041 237.724 86.6164 237.076C86.8269 236.434 87.1295 235.912 87.5241 235.51C87.9161 235.108 88.3674 234.843 88.8782 234.717C89.3862 234.59 89.9205 234.619 90.4812 234.806ZM90.1999 235.665C89.774 235.523 89.3878 235.515 89.0412 235.642C88.6947 235.77 88.397 235.989 88.1481 236.302C87.8993 236.614 87.7068 236.978 87.5705 237.394C87.4343 237.81 87.3734 238.219 87.3878 238.622C87.4023 239.025 87.5107 239.383 87.7131 239.696C87.9155 240.009 88.2296 240.236 88.6554 240.378C89.0813 240.52 89.468 240.526 89.8154 240.396C90.1629 240.266 90.4615 240.044 90.7112 239.729C90.9609 239.414 91.1539 239.048 91.2901 238.633C91.4263 238.217 91.4868 237.809 91.4715 237.409C91.4562 237.008 91.3469 236.653 91.1436 236.343C90.9403 236.032 90.6258 235.806 90.1999 235.665Z" fill="black"/>
<path d="M81.2843 231.469L78.6559 237.463L77.7685 237.068L78.1655 236.162L78.1032 236.135C77.8642 236.383 77.5614 236.535 77.195 236.593C76.8286 236.65 76.4663 236.599 76.1082 236.44C76.0408 236.41 75.957 236.371 75.8569 236.323C75.7569 236.275 75.6821 236.237 75.6324 236.209L76.0431 235.272C76.0708 235.294 76.1371 235.338 76.2418 235.403C76.3428 235.47 76.4543 235.53 76.5762 235.585C76.8669 235.714 77.1532 235.769 77.4351 235.748C77.7133 235.729 77.9654 235.642 78.1913 235.488C78.4134 235.335 78.5838 235.123 78.7025 234.853L80.3658 231.059L81.2843 231.469Z" fill="black"/>
<path d="M72.6721 227.403L69.4053 233.075L68.5668 232.584L69.0773 231.698L69.0037 231.655C68.7116 231.889 68.3862 232.013 68.0275 232.027C67.6673 232.043 67.3034 231.944 66.9356 231.728C66.563 231.51 66.3018 231.244 66.152 230.929C65.9983 230.615 65.9388 230.266 65.9735 229.881L65.9147 229.847C65.6013 230.055 65.2503 230.161 64.8618 230.163C64.4718 230.169 64.0746 230.053 63.67 229.816C63.165 229.521 62.8434 229.12 62.7051 228.614C62.5654 228.111 62.6877 227.526 63.0719 226.859L65.2583 223.063L66.1262 223.571L63.9398 227.367C63.6988 227.786 63.6405 228.151 63.765 228.465C63.8895 228.778 64.1062 229.025 64.4151 229.206C64.8123 229.438 65.1894 229.498 65.5466 229.384C65.9023 229.273 66.1858 229.034 66.3971 228.668L68.5239 224.975L69.4065 225.492L67.1691 229.376C66.9833 229.699 66.938 230.019 67.0329 230.338C67.1265 230.66 67.3375 230.917 67.666 231.109C67.8916 231.241 68.1371 231.304 68.4027 231.298C68.6659 231.291 68.9192 231.216 69.1627 231.072C69.4023 230.929 69.6022 230.718 69.7625 230.44L71.8042 226.895L72.6721 227.403Z" fill="black"/>
<path d="M59.6915 219.18L55.8691 224.493L55.0573 223.9L58.8797 218.586L59.6915 219.18ZM54.8192 225.077C54.9774 225.193 55.0749 225.347 55.1116 225.539C55.146 225.729 55.1084 225.901 54.9989 226.053C54.8894 226.205 54.7395 226.294 54.5492 226.321C54.3565 226.345 54.1811 226.3 54.0229 226.184C53.8646 226.068 53.7683 225.915 53.7339 225.724C53.6973 225.532 53.7337 225.36 53.8432 225.208C53.9527 225.056 54.1037 224.967 54.2964 224.943C54.4867 224.916 54.661 224.961 54.8192 225.077Z" fill="black"/>
<path d="M47.3133 220.552L52.8759 213.827L53.6456 214.474L48.083 221.199L47.3133 220.552Z" fill="black"/>
<path d="M47.9292 209.368L43.4264 214.119L42.7022 213.421L47.205 208.67L47.9292 209.368ZM42.3077 214.556C42.4489 214.692 42.5247 214.857 42.5351 215.053C42.5435 215.246 42.4832 215.411 42.3542 215.547C42.2252 215.683 42.0647 215.752 41.8726 215.752C41.6784 215.75 41.5108 215.681 41.3696 215.545C41.2284 215.409 41.1537 215.245 41.1453 215.051C41.1348 214.856 41.1941 214.69 41.3231 214.554C41.4521 214.418 41.6137 214.351 41.8078 214.352C41.9999 214.352 42.1665 214.42 42.3077 214.556Z" fill="black"/>
<path d="M40.9256 201.839C41.3132 202.285 41.5478 202.769 41.6295 203.292C41.7094 203.813 41.6417 204.335 41.4267 204.858C41.2097 205.38 40.8478 205.864 40.341 206.312C39.83 206.763 39.3028 207.064 38.7595 207.214C38.2144 207.362 37.6911 207.361 37.1897 207.213C36.6863 207.062 36.2409 206.764 35.8533 206.318C35.4658 205.872 35.2321 205.389 35.1523 204.868C35.0706 204.345 35.1393 203.822 35.3583 203.299C35.5755 202.773 35.9397 202.285 36.4507 201.834C36.9575 201.386 37.4824 201.089 38.0254 200.943C38.5666 200.795 39.0888 200.796 39.5921 200.947C40.0936 201.095 40.5381 201.393 40.9256 201.839ZM40.2485 202.437C39.9541 202.098 39.6256 201.895 39.2631 201.829C38.9006 201.762 38.5331 201.801 38.1608 201.944C37.7884 202.087 37.4382 202.303 37.1103 202.593C36.7824 202.883 36.5224 203.205 36.3305 203.56C36.1386 203.915 36.0504 204.279 36.0658 204.652C36.0812 205.025 36.2361 205.381 36.5305 205.72C36.8249 206.059 37.1544 206.261 37.5191 206.325C37.8837 206.39 38.2533 206.349 38.6278 206.204C39.0023 206.059 39.3535 205.842 39.6815 205.553C40.0094 205.263 40.2683 204.941 40.4581 204.588C40.6478 204.235 40.734 203.873 40.7164 203.502C40.6988 203.13 40.5429 202.776 40.2485 202.437Z" fill="black"/>
<path d="M24.3291 186.062L25.1305 185.576L27.0879 188.854L26.2865 189.341L24.3291 186.062Z" fill="black"/>
<path d="M21.0782 169.887L12.9326 173.02L11.0688 168.093L11.9438 167.757L13.4336 171.695L16.186 170.636L14.7926 166.954L15.6676 166.617L17.061 170.3L19.8292 169.235L18.3152 165.234L19.1903 164.897L21.0782 169.887Z" fill="black"/>
<path d="M12.9851 158.228L16.7938 157.229L17.0451 158.203L10.7138 159.864L10.4711 158.923L11.4603 158.664L11.439 158.581C11.0792 158.517 10.7626 158.359 10.4895 158.108C10.2135 157.857 10.0138 157.492 9.89025 157.014C9.7795 156.585 9.77053 156.186 9.86334 155.818C9.9534 155.451 10.1526 155.131 10.4609 154.859C10.7665 154.588 11.1886 154.382 11.7272 154.241L15.7502 153.186L16.0015 154.159L12.0445 155.197C11.5471 155.328 11.193 155.559 10.9822 155.89C10.7686 156.222 10.7201 156.614 10.8365 157.065C10.9167 157.376 11.0558 157.636 11.2536 157.845C11.4507 158.052 11.6965 158.192 11.991 158.264C12.2855 158.337 12.6169 158.325 12.9851 158.228Z" fill="black"/>
<path d="M14.0521 143.546C14.1301 144.086 14.0627 144.583 13.8498 145.036C13.634 145.49 13.2929 145.87 12.8263 146.177C12.3569 146.484 11.7793 146.688 11.0935 146.789C10.4133 146.889 9.80618 146.859 9.27214 146.699C8.7381 146.539 8.30468 146.271 7.9719 145.895C7.63912 145.519 7.43331 145.058 7.35447 144.513C7.29352 144.091 7.31563 143.748 7.42081 143.482C7.52278 143.215 7.65295 143.003 7.81134 142.848C7.9665 142.69 8.09502 142.566 8.19688 142.477L8.18469 142.392L4.99731 142.861L4.85346 141.865L13.488 140.597L13.627 141.558L12.632 141.705L12.6491 141.823C12.7777 141.878 12.9417 141.961 13.1411 142.069C13.3377 142.178 13.5243 142.347 13.701 142.577C13.8749 142.807 13.9919 143.13 14.0521 143.546ZM13.1388 143.543C13.0811 143.143 12.9283 142.821 12.6805 142.576C12.4299 142.332 12.1087 142.165 11.7169 142.076C11.3224 141.987 10.8806 141.979 10.3915 142.051C9.90805 142.122 9.49519 142.254 9.15292 142.448C8.80784 142.643 8.55403 142.892 8.39148 143.198C8.22612 143.503 8.1727 143.859 8.23122 144.263C8.29217 144.685 8.45118 145.021 8.70825 145.27C8.96209 145.517 9.28328 145.684 9.6718 145.77C10.0571 145.854 10.4774 145.863 10.9328 145.796C11.3937 145.728 11.8024 145.597 12.1587 145.401C12.5118 145.202 12.7793 144.948 12.9611 144.637C13.1397 144.323 13.1989 143.959 13.1388 143.543Z" fill="black"/>
<path d="M15.2896 133.502L6.29512 133.818L6.26155 132.847L7.30068 132.811L7.29656 132.692C7.18044 132.622 7.03211 132.525 6.85157 132.4C6.66809 132.273 6.50252 132.088 6.35486 131.846C6.20427 131.601 6.12161 131.266 6.10689 130.84C6.08785 130.289 6.20876 129.799 6.46964 129.369C6.73051 128.939 7.10956 128.598 7.60678 128.344C8.10401 128.091 8.69616 127.952 9.38323 127.928C10.076 127.904 10.6805 128 11.1969 128.218C11.7104 128.436 12.1135 128.749 12.4062 129.156C12.696 129.564 12.8503 130.04 12.8692 130.586C12.8837 131.006 12.8258 131.345 12.6954 131.602C12.5622 131.86 12.4085 132.06 12.2343 132.203C12.0573 132.345 11.9105 132.456 11.7938 132.534L11.7967 132.619L15.2548 132.497L15.2896 133.502ZM9.53167 132.715C10.0257 132.698 10.459 132.61 10.8316 132.452C11.2014 132.294 11.4879 132.072 11.6912 131.787C11.8917 131.501 11.985 131.157 11.971 130.754C11.9565 130.333 11.8337 129.987 11.6025 129.713C11.3684 129.437 11.0601 129.235 10.6776 129.106C10.2921 128.975 9.86656 128.917 9.40094 128.934C8.941 128.95 8.52893 129.035 8.16475 129.19C7.79763 129.342 7.51109 129.564 7.30513 129.856C7.09623 130.145 6.99914 130.502 7.01386 130.928C7.028 131.337 7.1435 131.677 7.36038 131.947C7.57441 132.219 7.86843 132.419 8.24243 132.548C8.61359 132.677 9.04333 132.733 9.53167 132.715Z" fill="black"/>
<path d="M13.0933 118.44C13.0493 119.029 12.8706 119.535 12.557 119.959C12.2436 120.38 11.8255 120.696 11.3027 120.907C10.78 121.115 10.1816 121.194 9.50743 121.142C8.82756 121.091 8.24328 120.923 7.75458 120.638C7.2661 120.35 6.89811 119.975 6.65061 119.511C6.40333 119.045 6.30165 118.518 6.34558 117.928C6.38951 117.339 6.56817 116.834 6.88157 116.413C7.19517 115.99 7.6147 115.674 8.14014 115.466C8.66579 115.255 9.26856 115.176 9.94842 115.227C10.6226 115.278 11.2026 115.447 11.6882 115.735C12.1741 116.02 12.5406 116.395 12.7879 116.861C13.0354 117.324 13.1372 117.85 13.0933 118.44ZM12.1925 118.372C12.2258 117.924 12.1386 117.547 11.9306 117.241C11.7227 116.934 11.437 116.697 11.0734 116.53C10.7098 116.363 10.3099 116.263 9.87366 116.23C9.43741 116.197 9.02573 116.235 8.63862 116.346C8.25151 116.456 7.93104 116.647 7.67721 116.918C7.42338 117.19 7.27978 117.549 7.24641 117.997C7.21304 118.444 7.30172 118.821 7.51247 119.128C7.72321 119.435 8.01179 119.672 8.3782 119.839C8.74462 120.006 9.14595 120.106 9.5822 120.14C10.0184 120.173 10.4287 120.134 10.813 120.023C11.1973 119.913 11.5149 119.722 11.7659 119.45C12.0169 119.179 12.1591 118.819 12.1925 118.372Z" fill="black"/>
<path d="M14.0848 108.609L7.62835 107.533L7.791 106.541L14.2475 107.616L14.0848 108.609ZM6.63498 106.849C6.60327 107.043 6.51008 107.199 6.3554 107.317C6.20118 107.432 6.03159 107.475 5.84664 107.444C5.66169 107.413 5.51462 107.318 5.40542 107.159C5.29669 106.996 5.25817 106.819 5.28988 106.625C5.32158 106.432 5.41454 106.277 5.56876 106.162C5.72344 106.044 5.89326 106 6.07821 106.031C6.26316 106.062 6.41 106.158 6.51874 106.32C6.62793 106.479 6.66668 106.656 6.63498 106.849Z" fill="black"/>
<path d="M11.9375 99.1162L15.7482 100.107L15.4988 101.082L9.16418 99.434L9.40504 98.4928L10.3948 98.7502L10.416 98.6676C10.1323 98.4353 9.93161 98.1424 9.81387 97.7889C9.69338 97.4347 9.69441 97.0181 9.81695 96.5392C9.92682 96.1099 10.1109 95.7571 10.3693 95.4808C10.6249 95.2039 10.9529 95.0221 11.3534 94.9355C11.7511 94.8481 12.2194 94.8745 12.7583 95.0147L16.7834 96.0617L16.5341 97.036L12.575 96.0061C12.0773 95.8767 11.6565 95.9052 11.3126 96.0917C10.966 96.2774 10.7349 96.596 10.6194 97.0474C10.5398 97.3584 10.5361 97.6539 10.6081 97.9339C10.6809 98.2111 10.8285 98.4535 11.051 98.6611C11.2736 98.8687 11.569 99.0204 11.9375 99.1162Z" fill="black"/>
<path d="M13.7957 84.1152L14.5956 84.4093L13.4419 87.5991L12.642 87.305L13.7957 84.1152ZM11.5064 85.8342L11.8484 84.8885L17.7039 87.0412C17.9705 87.1393 18.1845 87.174 18.3458 87.1456C18.5055 87.1135 18.6302 87.0443 18.72 86.9381C18.808 86.8282 18.8772 86.7038 18.9274 86.5649C18.9651 86.4607 18.9907 86.3732 19.0042 86.3025C19.015 86.2308 19.0237 86.1735 19.0302 86.1305L19.9477 86.2499C19.9485 86.3228 19.9401 86.4211 19.9225 86.5448C19.9077 86.6695 19.8683 86.82 19.8046 86.9963C19.7079 87.2635 19.5559 87.5042 19.3485 87.7185C19.1421 87.9302 18.8911 88.077 18.5956 88.1591C18.301 88.2384 17.9751 88.2124 17.6178 88.0811L11.5064 85.8342Z" fill="black"/>
<path d="M19.8599 73.7276L19.7062 74.6554C19.5462 74.6419 19.3785 74.6547 19.2032 74.6937C19.0266 74.7289 18.8561 74.8112 18.6917 74.9404C18.5274 75.0697 18.3829 75.2667 18.2584 75.5316C18.088 75.8941 18.0293 76.236 18.0823 76.5572C18.1339 76.8747 18.2866 77.0941 18.5404 77.2154C18.766 77.3232 18.9828 77.3261 19.1909 77.224C19.3989 77.1219 19.6287 76.9169 19.8803 76.6089L20.509 75.8325C20.8861 75.3641 21.2677 75.0632 21.6538 74.9297C22.0374 74.795 22.4355 74.8262 22.8482 75.0234C23.1865 75.1851 23.443 75.4274 23.6178 75.7502C23.7937 76.0704 23.877 76.4408 23.8676 76.8614C23.8582 77.2819 23.7453 77.7223 23.529 78.1825C23.2449 78.7867 22.8791 79.2243 22.4315 79.4953C21.9839 79.7662 21.4842 79.8344 20.9322 79.6997L21.123 78.733C21.4795 78.8026 21.791 78.761 22.0575 78.6081C22.3252 78.4527 22.5467 78.1886 22.722 77.8158C22.9214 77.3916 22.99 77.0119 22.9279 76.6768C22.8643 76.3378 22.7057 76.1077 22.4519 75.9865C22.2469 75.8885 22.0413 75.8784 21.8352 75.9562C21.6265 76.0328 21.4175 76.2037 21.208 76.4689L20.5132 77.3459C20.13 77.8271 19.744 78.1306 19.3552 78.2566C18.9651 78.3787 18.5662 78.3423 18.1586 78.1476C17.8254 77.9883 17.5748 77.7536 17.4067 77.4434C17.2398 77.1307 17.1601 76.7762 17.1675 76.3798C17.1761 75.9809 17.2783 75.5732 17.4741 75.1567C17.7497 74.5705 18.0942 74.1716 18.5076 73.9599C18.9223 73.7456 19.373 73.6681 19.8599 73.7276Z" fill="black"/>
<path d="M35.8423 61.8501C35.5599 62.2454 35.2665 62.5484 34.9622 62.7593C34.6602 62.9718 34.3599 63.1135 34.0613 63.1845C33.7666 63.2549 33.4877 63.2788 33.2245 63.2562L33.2352 62.2738C33.3846 62.2699 33.5618 62.2564 33.7668 62.2333C33.9742 62.2119 34.194 62.1363 34.4264 62.0067C34.6627 61.8763 34.8956 61.6505 35.1252 61.3292C35.4324 60.8993 35.5825 60.4694 35.5755 60.0394C35.5685 59.6095 35.3443 59.2342 34.903 58.9137L33.8273 58.1323L33.7777 58.2016C33.8313 58.3319 33.8897 58.5042 33.953 58.7187C34.0155 58.9292 34.0285 59.1773 33.9918 59.4632C33.9545 59.7451 33.812 60.0593 33.5642 60.4061C33.257 60.836 32.88 61.1485 32.4333 61.3437C31.9882 61.5366 31.5016 61.5921 30.9734 61.5104C30.4469 61.4264 29.9078 61.184 29.3561 60.7833C28.8137 60.3893 28.4099 59.9503 28.1447 59.4663C27.8772 58.9806 27.7554 58.4866 27.7792 57.9842C27.8007 57.4801 27.9717 57.0039 28.2921 56.5555C28.5398 56.2088 28.7939 55.9755 29.0541 55.8555C29.3138 55.7316 29.5548 55.668 29.7772 55.6645C29.999 55.6571 30.1774 55.6567 30.3122 55.6634L30.3717 55.5802L29.5304 54.9691L30.0953 54.1786L35.5428 58.1355C35.998 58.4661 36.2937 58.8389 36.4301 59.2539C36.5704 59.6684 36.5825 60.0985 36.4664 60.5444C36.3543 60.9896 36.1462 61.4248 35.8423 61.8501ZM32.9126 59.7642C33.1471 59.436 33.2706 59.1043 33.2831 58.7693C33.2955 58.4342 33.2037 58.1059 33.0075 57.7844C32.8113 57.4628 32.5178 57.1601 32.1271 56.8763C31.7455 56.5991 31.3675 56.4123 30.993 56.3158C30.6185 56.2194 30.2676 56.2243 29.9402 56.3306C29.6128 56.4369 29.3302 56.6565 29.0924 56.9893C28.8446 57.3361 28.7255 57.6884 28.735 58.0465C28.7462 58.4022 28.8576 58.7447 29.0692 59.074C29.2825 59.4009 29.5684 59.6946 29.927 59.9551C30.2948 60.2222 30.6613 60.4007 31.0266 60.4905C31.3913 60.5763 31.7358 60.5632 32.0602 60.4512C32.384 60.3353 32.6681 60.1063 32.9126 59.7642Z" fill="black"/>
<path d="M41.6792 50.5736C41.2606 51.0453 40.7961 51.359 40.2858 51.5146C39.7752 51.6661 39.2512 51.6659 38.7138 51.5139C38.1762 51.3579 37.6584 51.0554 37.1606 50.6063C36.6628 50.1571 36.3052 49.67 36.0877 49.1447C35.87 48.6154 35.8007 48.09 35.88 47.5684C35.959 47.0429 36.1946 46.5591 36.5869 46.1172C36.8132 45.8622 37.0788 45.6485 37.3838 45.476C37.6889 45.3035 38.0268 45.2009 38.3977 45.1682C38.7664 45.1336 39.1596 45.1956 39.5772 45.3543C39.9947 45.5129 40.4303 45.7968 40.8838 46.2059L41.2002 46.4914L37.851 50.2649L37.2056 49.6826L39.8758 46.674C39.6016 46.4266 39.3079 46.2611 38.9947 46.1774C38.6834 46.0917 38.3759 46.0936 38.0723 46.1832C37.7706 46.2706 37.499 46.4503 37.2577 46.7223C36.9918 47.0219 36.8355 47.3477 36.7889 47.6998C36.7421 48.0478 36.7839 48.3859 36.9144 48.714C37.0448 49.0421 37.2439 49.327 37.5118 49.5686L37.9421 49.9569C38.3091 50.288 38.6768 50.5049 39.0452 50.6077C39.4134 50.7065 39.7657 50.701 40.1023 50.5915C40.4367 50.48 40.7388 50.2723 41.0085 49.9685C41.1838 49.7709 41.3148 49.5677 41.4014 49.3588C41.4878 49.146 41.5269 48.9307 41.5189 48.713C41.5087 48.4933 41.4475 48.2755 41.3353 48.0595L42.1828 47.5156C42.3595 47.8128 42.4606 48.1355 42.4859 48.4835C42.5092 48.8297 42.4546 49.1822 42.3222 49.541C42.1877 49.898 41.9734 50.2422 41.6792 50.5736Z" fill="black"/>
<path d="M45.732 40.5327L48.3612 43.4638L47.618 44.1414L43.2475 39.2689L43.9654 38.6143L44.6483 39.3756L44.7113 39.3182C44.6027 38.9674 44.5966 38.6116 44.6928 38.2509C44.7872 37.8881 45.017 37.5402 45.3822 37.2071C45.7097 36.9085 46.057 36.7149 46.424 36.6263C46.7891 36.5356 47.1623 36.5645 47.5434 36.7128C47.9227 36.8591 48.2982 37.1395 48.67 37.554L51.4471 40.6501L50.704 41.3277L47.9724 38.2824C47.6291 37.8996 47.2629 37.6914 46.874 37.6577C46.4832 37.6219 46.1156 37.761 45.7713 38.0749C45.5341 38.2912 45.3686 38.5363 45.2747 38.8103C45.1829 39.0823 45.1726 39.3666 45.2439 39.663C45.3151 39.9594 45.4778 40.2493 45.732 40.5327Z" fill="black"/>
<path d="M59.358 34.5004C58.8496 34.8737 58.3296 35.0829 57.7979 35.128C57.2669 35.1691 56.7545 35.059 56.2608 34.7977C55.7677 34.5325 55.3249 34.1281 54.9322 33.5847C54.5396 33.0412 54.2919 32.49 54.1894 31.9308C54.0874 31.3677 54.1299 30.8396 54.3167 30.3463C54.5042 29.8491 54.8361 29.4256 55.3124 29.0758C55.5871 28.874 55.8917 28.7208 56.2262 28.6161C56.5606 28.5115 56.9126 28.4821 57.2822 28.5279C57.6501 28.5714 58.0216 28.7145 58.3967 28.9571C58.7717 29.1998 59.1381 29.5686 59.4959 30.0637L59.7454 30.4091L55.6789 33.3958L55.1698 32.6911L58.412 30.3099C58.1957 30.0105 57.9432 29.7871 57.6544 29.6397C57.3679 29.4906 57.0669 29.428 56.7512 29.4519C56.4378 29.4741 56.1345 29.5928 55.8415 29.8081C55.5186 30.0452 55.2975 30.331 55.1781 30.6654C55.0594 30.9958 55.0294 31.335 55.0881 31.6831C55.1469 32.0312 55.2819 32.3515 55.4932 32.644L55.8326 33.1137C56.1221 33.5144 56.4362 33.8036 56.7749 33.9813C57.1142 34.1551 57.46 34.2237 57.8121 34.1871C58.1625 34.1483 58.5014 34.0086 58.8289 33.7681C59.0418 33.6117 59.2125 33.4405 59.341 33.2545C59.4701 33.0645 59.5535 32.8623 59.5913 32.6477C59.6273 32.4309 59.6132 32.2052 59.5488 31.9705L60.4916 31.6164C60.6021 31.9441 60.6333 32.2807 60.5851 32.6263C60.5352 32.9696 60.408 33.3027 60.2033 33.6258C59.9969 33.9465 59.7151 34.238 59.358 34.5004Z" fill="black"/>
<path d="M66.5351 29.4839L63.209 23.8465L64.0423 23.3467L64.5446 24.1982L64.6031 24.1632C64.5409 23.8229 64.5925 23.4855 64.758 23.151C64.9235 22.8166 65.1744 22.5485 65.5106 22.3469C65.5739 22.3089 65.6538 22.2627 65.7503 22.2081C65.8468 22.1536 65.9208 22.1141 65.9724 22.0898L66.4921 22.9707C66.4585 22.9809 66.385 23.01 66.2716 23.0582C66.1592 23.1024 66.0457 23.1589 65.9312 23.2275C65.6583 23.3912 65.4486 23.5948 65.3021 23.8384C65.1565 24.0781 65.0808 24.3355 65.0749 24.6106C65.07 24.8819 65.1427 25.1447 65.2928 25.3992L67.3976 28.9666L66.5351 29.4839Z" fill="black"/>
<path d="M76.6583 24.0942C76.2843 24.2734 75.9115 24.3654 75.54 24.3702C75.1673 24.3723 74.8277 24.2815 74.5211 24.0976C74.2134 23.9112 73.9687 23.6252 73.787 23.2397C73.6271 22.9005 73.5641 22.5937 73.598 22.3191C73.6307 22.042 73.73 21.7896 73.8959 21.5621C74.0619 21.3345 74.2654 21.1267 74.5066 20.9387C74.7491 20.7469 74.9989 20.5673 75.2561 20.4C75.593 20.1819 75.8674 20.0078 76.0794 19.8779C76.2927 19.7442 76.4367 19.6232 76.5113 19.515C76.5885 19.4056 76.5926 19.2776 76.5235 19.1311L76.509 19.1003C76.3297 18.72 76.0867 18.4742 75.7798 18.3629C75.4755 18.2504 75.1146 18.2942 74.697 18.4943C74.264 18.7018 73.9694 18.9595 73.813 19.2675C73.6567 19.5755 73.5795 19.8614 73.5813 20.1251L72.5751 20.2292C72.5593 19.7958 72.6322 19.4175 72.7939 19.0943C72.957 18.7673 73.1722 18.491 73.4395 18.2652C73.7082 18.0357 73.9911 17.8497 74.2883 17.7073C74.4779 17.6164 74.7065 17.5352 74.9743 17.4636C75.2434 17.3882 75.526 17.3647 75.8219 17.393C76.1205 17.42 76.4126 17.5368 76.6984 17.7432C76.9842 17.9496 77.2379 18.288 77.4595 18.7582L79.2984 22.6591L78.3914 23.0936L78.0135 22.2919L77.9674 22.314C77.9664 22.4719 77.9288 22.6585 77.8543 22.8737C77.7799 23.089 77.6478 23.3051 77.458 23.522C77.2682 23.739 77.0016 23.9297 76.6583 24.0942ZM76.4115 23.2107C76.7701 23.0389 77.0391 22.8233 77.2185 22.5642C77.4004 22.3037 77.5014 22.0317 77.5215 21.748C77.5442 21.463 77.4974 21.1972 77.3812 20.9505L76.9887 20.1179C76.9721 20.1826 76.9075 20.2655 76.795 20.3666C76.6839 20.464 76.5504 20.5673 76.3947 20.6766C76.2402 20.7821 76.0885 20.8832 75.9393 20.9799C75.7915 21.0727 75.6719 21.1489 75.5807 21.2084C75.3595 21.3522 75.1628 21.5079 74.9905 21.6755C74.8196 21.8393 74.7035 22.0193 74.6422 22.2157C74.5822 22.4082 74.6067 22.6201 74.7157 22.8514C74.8647 23.1675 75.0939 23.3506 75.4034 23.4008C75.7142 23.4472 76.0502 23.3838 76.4115 23.2107Z" fill="black"/>
<path d="M85.7988 12.9978L86.0895 13.799L82.9071 14.9728L82.6164 14.1716L85.7988 12.9978ZM83.009 12.3554L83.9526 12.0074L86.0805 17.8719C86.1774 18.1389 86.2887 18.325 86.4145 18.43C86.5419 18.5314 86.6752 18.5821 86.8142 18.5823C86.955 18.5788 87.0947 18.5515 87.2333 18.5004C87.3373 18.4621 87.4206 18.4253 87.4834 18.39C87.5452 18.3521 87.5946 18.3217 87.6317 18.299L88.1317 19.0774C88.0765 19.1251 87.9959 19.182 87.89 19.2483C87.7851 19.3173 87.6447 19.3842 87.4688 19.4491C87.2022 19.5474 86.9202 19.5864 86.6226 19.5659C86.3278 19.5445 86.0537 19.4472 85.8005 19.2741C85.55 19.1001 85.3598 18.8341 85.23 18.4763L83.009 12.3554Z" fill="black"/>
<path d="M96.9975 16.5239C96.4258 16.6732 95.8891 16.668 95.3876 16.5084C94.8888 16.348 94.4555 16.0545 94.0878 15.6279C93.7228 15.2006 93.4561 14.6595 93.2878 14.0047C93.1181 13.3443 93.0896 12.7366 93.2021 12.1817C93.3174 11.626 93.5545 11.1559 93.9133 10.7715C94.2748 10.3864 94.7415 10.1191 95.3132 9.96977C95.8849 9.82042 96.4202 9.82594 96.919 9.98633C97.4205 10.146 97.8541 10.4409 98.2198 10.8709C98.5883 11.3002 98.8574 11.8451 99.0271 12.5055C99.1954 13.1603 99.2215 13.7642 99.1055 14.3172C98.9922 14.8694 98.7548 15.3381 98.3933 15.7232C98.0345 16.1076 97.5692 16.3745 96.9975 16.5239ZM96.7726 15.6489C97.2069 15.5354 97.5356 15.3307 97.7587 15.0345C97.9818 14.7384 98.114 14.3912 98.1554 13.9928C98.1967 13.5944 98.1629 13.1834 98.054 12.7596C97.9451 12.3359 97.7763 11.9587 97.5476 11.6279C97.3189 11.2971 97.0353 11.0555 96.697 10.9032C96.3586 10.7508 95.9723 10.7313 95.538 10.8447C95.1037 10.9582 94.7754 11.1644 94.553 11.4632C94.3306 11.7621 94.1991 12.1121 94.1585 12.5132C94.1179 12.9143 94.152 13.3268 94.2609 13.7505C94.3698 14.1742 94.5382 14.5501 94.7662 14.8781C94.9943 15.2061 95.2771 15.445 95.6147 15.5946C95.9524 15.7442 96.3383 15.7623 96.7726 15.6489Z" fill="black"/>
<path d="M106.52 14.2951L105.509 7.82817L106.468 7.67568L106.621 8.65246L106.688 8.64175C106.756 8.30305 106.929 8.00953 107.206 7.7612C107.484 7.51287 107.816 7.35794 108.203 7.29641C108.276 7.28482 108.368 7.27173 108.477 7.25715C108.587 7.24256 108.671 7.23362 108.728 7.23032L108.886 8.24077C108.851 8.2377 108.772 8.23733 108.648 8.23966C108.527 8.23874 108.401 8.24876 108.269 8.26972C107.955 8.31965 107.685 8.4302 107.458 8.60136C107.234 8.76927 107.069 8.97967 106.962 9.23257C106.857 9.48221 106.827 9.75299 106.873 10.0449L107.513 14.1372L106.52 14.2951Z" fill="black"/>
<path d="M126.052 1.12688L126.052 15.4792L125.2 15.4792L125.2 1.12688L126.052 1.12688Z" fill="black"/>
<path d="M141.837 13.8146L143.293 5.2097L148.451 6.09696L148.294 7.02132L144.178 6.31324L143.686 9.22076L147.416 9.86236L147.259 10.7867L143.53 10.1451L142.878 13.9938L141.837 13.8146Z" fill="black"/>
<path d="M156.392 17.1242C155.825 16.9603 155.365 16.6812 155.013 16.2869C154.664 15.8935 154.439 15.4188 154.337 14.863C154.238 14.308 154.28 13.7053 154.465 13.0549C154.651 12.399 154.933 11.8608 155.309 11.4402C155.688 11.0203 156.129 10.7366 156.632 10.589C157.137 10.4421 157.673 10.4507 158.241 10.6145C158.809 10.7784 159.267 11.0571 159.616 11.4506C159.968 11.8449 160.193 12.3209 160.292 12.8786C160.393 13.4371 160.35 14.0443 160.164 14.7002C159.979 15.3506 159.698 15.8844 159.319 16.3015C158.944 16.7194 158.503 17.0017 157.998 17.1486C157.495 17.2962 156.96 17.2881 156.392 17.1242ZM156.639 16.2551C157.071 16.3796 157.457 16.3714 157.798 16.2304C158.139 16.0894 158.428 15.8578 158.664 15.5357C158.9 15.2136 159.078 14.8421 159.198 14.4212C159.317 14.0004 159.362 13.5889 159.331 13.1868C159.301 12.7848 159.178 12.4315 158.963 12.127C158.749 11.8226 158.426 11.6081 157.994 11.4836C157.563 11.3591 157.176 11.3687 156.834 11.5124C156.492 11.6561 156.203 11.8904 155.966 12.2153C155.729 12.5401 155.551 12.913 155.431 13.3339C155.312 13.7547 155.268 14.1648 155.299 14.5642C155.33 14.9635 155.454 15.314 155.669 15.6158C155.885 15.9175 156.208 16.1306 156.639 16.2551Z" fill="black"/>
<path d="M165.715 20.0856L168.102 13.9909L169.004 14.3502L168.644 15.2708L168.707 15.296C168.936 15.0386 169.233 14.8738 169.597 14.8015C169.96 14.7293 170.324 14.7657 170.689 14.9107C170.757 14.938 170.843 14.9735 170.945 15.0171C171.046 15.0607 171.123 15.0957 171.173 15.122L170.8 16.0743C170.772 16.0537 170.704 16.0129 170.597 15.9519C170.493 15.8892 170.379 15.8332 170.255 15.7838C169.96 15.6662 169.671 15.6232 169.39 15.6551C169.113 15.6854 168.865 15.7822 168.645 15.9455C168.429 16.1072 168.267 16.3257 168.16 16.6008L166.649 20.4576L165.715 20.0856Z" fill="black"/>
<path d="M174.483 23.7986L177.52 18.0005L178.378 18.4572L177.903 19.3631L177.978 19.4032C178.261 19.1578 178.581 19.0209 178.939 18.9927C179.298 18.9619 179.666 19.0466 180.042 19.2469C180.423 19.4499 180.695 19.7056 180.857 20.0141C181.023 20.3214 181.097 20.6679 181.078 21.0536L181.138 21.0856C181.443 20.8649 181.789 20.7453 182.177 20.7267C182.567 20.7056 182.968 20.8052 183.382 21.0255C183.899 21.3006 184.236 21.6879 184.395 22.1874C184.554 22.6844 184.456 23.274 184.098 23.9559L182.066 27.8364L181.178 27.3637L183.211 23.4833C183.435 23.0554 183.478 22.6876 183.341 22.3797C183.204 22.0718 182.978 21.8338 182.662 21.6655C182.256 21.4492 181.876 21.4049 181.524 21.5327C181.173 21.658 180.899 21.9081 180.703 22.2831L178.725 26.0579L177.823 25.5772L179.903 21.6061C180.076 21.2764 180.108 20.9542 180.001 20.6394C179.894 20.322 179.673 20.0739 179.337 19.895C179.106 19.7721 178.858 19.7189 178.593 19.7354C178.33 19.7533 178.08 19.8389 177.843 19.9924C177.609 20.1448 177.418 20.3631 177.269 20.6475L175.37 24.2713L174.483 23.7986Z" fill="black"/>
<path d="M187.781 31.4897L191.387 26.0275L192.223 26.5879L188.616 32.0502L187.781 31.4897ZM192.413 25.4021C192.25 25.2929 192.147 25.1429 192.102 24.9524C192.06 24.7634 192.091 24.5906 192.194 24.4341C192.298 24.2777 192.444 24.1825 192.633 24.1487C192.825 24.1164 193.002 24.1549 193.165 24.2641C193.327 24.3734 193.43 24.5225 193.472 24.7115C193.516 24.9021 193.487 25.0756 193.383 25.2321C193.28 25.3885 193.133 25.4829 192.941 25.5152C192.752 25.549 192.576 25.5113 192.413 25.4021Z" fill="black"/>
<path d="M200.093 29.6198L194.805 36.5622L194.01 35.9465L199.298 29.0041L200.093 29.6198Z" fill="black"/>
<path d="M199.925 40.8172L204.234 35.8897L204.985 36.5578L200.677 41.4853L199.925 40.8172ZM205.334 35.4082C205.187 35.278 205.105 35.1154 205.087 34.9205C205.071 34.7275 205.124 34.5604 205.248 34.4193C205.371 34.2781 205.529 34.2036 205.721 34.1955C205.915 34.1894 206.085 34.2514 206.232 34.3816C206.378 34.5118 206.459 34.6735 206.476 34.8664C206.494 35.0613 206.441 35.2293 206.318 35.3705C206.194 35.5116 206.036 35.5853 205.842 35.5915C205.65 35.5995 205.481 35.5384 205.334 35.4082Z" fill="black"/>
<path d="M207.224 48.0578C206.819 47.6276 206.565 47.1529 206.462 46.6338C206.362 46.1166 206.408 45.5922 206.602 45.0605C206.798 44.5309 207.14 44.0323 207.628 43.5647C208.121 43.0932 208.636 42.7716 209.172 42.5999C209.711 42.4302 210.234 42.4094 210.741 42.5376C211.25 42.6678 211.707 42.9479 212.112 43.3781C212.517 43.8083 212.77 44.2819 212.871 44.799C212.974 45.3182 212.926 45.8436 212.728 46.3752C212.532 46.9088 212.188 47.4114 211.695 47.8829C211.207 48.3505 210.694 48.6681 210.158 48.8358C209.623 49.0056 209.101 49.0254 208.592 48.8952C208.085 48.7671 207.629 48.4879 207.224 48.0578ZM207.877 47.433C208.184 47.7598 208.521 47.9491 208.886 48.0009C209.25 48.0527 209.616 47.9996 209.982 47.8416C210.349 47.6836 210.69 47.4534 211.006 47.1508C211.322 46.8483 211.569 46.5157 211.746 46.1531C211.924 45.7904 211.997 45.4231 211.967 45.051C211.936 44.679 211.767 44.3296 211.46 44.0028C211.152 43.6761 210.814 43.4878 210.448 43.4379C210.081 43.3881 209.713 43.4431 209.345 43.6031C208.976 43.7631 208.634 43.9943 208.318 44.2969C208.002 44.5994 207.756 44.931 207.581 45.2917C207.405 45.6523 207.334 46.0177 207.366 46.3878C207.399 46.7579 207.569 47.1063 207.877 47.433Z" fill="black"/>
<path d="M224.435 63.151L223.654 63.6694L221.567 60.4721L222.348 59.9538L224.435 63.151Z" fill="black"/>
<path d="M228.328 79.1808L236.34 75.7215L238.399 80.5693L237.538 80.9409L235.892 77.0658L233.185 78.2346L234.724 81.8588L233.864 82.2304L232.324 78.6062L229.601 79.7819L231.274 83.7198L230.413 84.0914L228.328 79.1808Z" fill="black"/>
<path d="M236.877 90.5031L233.112 91.6555L232.822 90.6925L239.081 88.7768L239.361 89.7072L238.383 90.0065L238.408 90.0881C238.77 90.1377 239.093 90.2826 239.376 90.5228C239.661 90.7622 239.875 91.1185 240.018 91.5919C240.146 92.0162 240.171 92.4141 240.093 92.7856C240.017 93.1563 239.831 93.4836 239.534 93.7677C239.239 94.051 238.826 94.2741 238.293 94.437L234.316 95.6543L234.027 94.6913L237.938 93.494C238.43 93.3435 238.775 93.0984 238.972 92.7587C239.172 92.4182 239.205 92.0249 239.071 91.5788C238.978 91.2714 238.829 91.017 238.623 90.8157C238.417 90.617 238.166 90.4874 237.869 90.4268C237.572 90.3663 237.241 90.3917 236.877 90.5031Z" fill="black"/>
<path d="M236.396 105.217C236.297 104.681 236.344 104.182 236.539 103.72C236.736 103.258 237.062 102.864 237.516 102.538C237.973 102.212 238.542 101.985 239.223 101.857C239.898 101.729 240.506 101.735 241.046 101.873C241.586 102.011 242.03 102.261 242.377 102.623C242.725 102.986 242.949 103.438 243.049 103.98C243.127 104.399 243.119 104.743 243.024 105.012C242.933 105.284 242.811 105.5 242.659 105.662C242.511 105.826 242.387 105.955 242.289 106.049L242.304 106.132L245.47 105.535L245.654 106.524L237.077 108.141L236.9 107.186L237.889 107L237.867 106.882C237.736 106.832 237.569 106.756 237.365 106.656C237.165 106.555 236.971 106.393 236.786 106.171C236.603 105.948 236.473 105.63 236.396 105.217ZM237.309 105.184C237.383 105.58 237.548 105.896 237.805 106.131C238.066 106.365 238.393 106.519 238.788 106.592C239.186 106.664 239.627 106.654 240.113 106.563C240.593 106.472 241.001 106.323 241.335 106.116C241.672 105.908 241.915 105.648 242.066 105.336C242.219 105.024 242.258 104.667 242.183 104.264C242.106 103.845 241.933 103.517 241.667 103.278C241.403 103.041 241.076 102.888 240.684 102.817C240.296 102.748 239.875 102.757 239.423 102.842C238.965 102.929 238.562 103.077 238.214 103.287C237.869 103.499 237.612 103.765 237.443 104.083C237.277 104.403 237.232 104.77 237.309 105.184Z" fill="black"/>
<path d="M235.559 115.303L244.534 114.622L244.606 115.591L243.569 115.67L243.578 115.789C243.697 115.854 243.849 115.945 244.034 116.062C244.222 116.182 244.395 116.359 244.552 116.595C244.713 116.834 244.809 117.166 244.84 117.591C244.881 118.14 244.78 118.635 244.536 119.075C244.293 119.515 243.928 119.872 243.441 120.145C242.954 120.419 242.368 120.581 241.683 120.633C240.992 120.686 240.384 120.614 239.859 120.417C239.337 120.22 238.922 119.924 238.613 119.528C238.308 119.133 238.134 118.663 238.094 118.119C238.063 117.7 238.107 117.359 238.227 117.096C238.35 116.833 238.495 116.627 238.664 116.478C238.835 116.328 238.977 116.212 239.091 116.129L239.084 116.044L235.634 116.305L235.559 115.303ZM241.344 115.856C240.851 115.893 240.421 115.998 240.055 116.171C239.692 116.344 239.415 116.577 239.223 116.871C239.034 117.165 238.955 117.512 238.985 117.915C239.016 118.334 239.152 118.676 239.394 118.939C239.639 119.206 239.955 119.395 240.343 119.508C240.733 119.624 241.16 119.664 241.625 119.629C242.084 119.594 242.492 119.492 242.85 119.323C243.211 119.156 243.488 118.923 243.682 118.623C243.879 118.326 243.962 117.965 243.931 117.54C243.9 117.132 243.771 116.797 243.544 116.535C243.319 116.273 243.017 116.085 242.638 115.971C242.262 115.857 241.831 115.819 241.344 115.856Z" fill="black"/>
<path d="M238.353 130.264C238.373 129.673 238.532 129.16 238.828 128.724C239.125 128.291 239.53 127.959 240.044 127.726C240.558 127.497 241.153 127.394 241.828 127.418C242.51 127.442 243.1 127.587 243.6 127.851C244.1 128.119 244.482 128.479 244.748 128.932C245.014 129.388 245.136 129.911 245.116 130.501C245.095 131.092 244.937 131.604 244.641 132.037C244.344 132.473 243.938 132.805 243.421 133.034C242.904 133.266 242.305 133.37 241.623 133.346C240.948 133.323 240.361 133.177 239.865 132.909C239.368 132.645 238.987 132.284 238.721 131.829C238.455 131.376 238.333 130.854 238.353 130.264ZM239.256 130.296C239.24 130.744 239.343 131.117 239.562 131.415C239.782 131.713 240.077 131.938 240.447 132.09C240.817 132.242 241.221 132.326 241.658 132.341C242.095 132.357 242.505 132.302 242.888 132.176C243.27 132.05 243.583 131.846 243.825 131.565C244.068 131.283 244.197 130.918 244.213 130.47C244.228 130.021 244.125 129.648 243.902 129.35C243.679 129.052 243.381 128.827 243.009 128.675C242.636 128.523 242.231 128.439 241.794 128.423C241.356 128.408 240.948 128.463 240.568 128.589C240.189 128.715 239.879 128.919 239.639 129.2C239.399 129.482 239.271 129.847 239.256 130.296Z" fill="black"/>
<path d="M237.753 140.127L244.248 140.94L244.125 141.938L237.63 141.125L237.753 140.127ZM245.268 141.583C245.292 141.389 245.379 141.229 245.529 141.105C245.678 140.983 245.846 140.934 246.032 140.958C246.218 140.981 246.369 141.07 246.484 141.225C246.599 141.382 246.645 141.558 246.621 141.753C246.597 141.947 246.51 142.105 246.361 142.227C246.211 142.351 246.043 142.402 245.857 142.379C245.671 142.355 245.52 142.265 245.405 142.107C245.29 141.953 245.244 141.778 245.268 141.583Z" fill="black"/>
<path d="M240.277 149.525L236.429 148.688L236.64 147.705L243.036 149.095L242.833 150.045L241.833 149.828L241.816 149.911C242.108 150.132 242.321 150.416 242.452 150.765C242.587 151.114 242.602 151.53 242.499 152.013C242.406 152.447 242.237 152.807 241.989 153.093C241.745 153.38 241.424 153.575 241.028 153.678C240.634 153.781 240.165 153.774 239.621 153.655L235.556 152.772L235.767 151.789L239.764 152.658C240.267 152.767 240.686 152.721 241.022 152.521C241.361 152.321 241.579 151.994 241.677 151.538C241.744 151.224 241.736 150.929 241.653 150.652C241.569 150.378 241.412 150.142 241.181 149.943C240.951 149.745 240.649 149.605 240.277 149.525Z" fill="black"/>
<path d="M239.018 164.588L238.207 164.327L239.233 161.093L240.044 161.355L239.018 164.588ZM241.238 162.778L240.934 163.737L234.996 161.823C234.725 161.736 234.51 161.71 234.35 161.744C234.192 161.783 234.07 161.857 233.985 161.967C233.901 162.08 233.837 162.207 233.792 162.348C233.759 162.454 233.737 162.542 233.726 162.613C233.718 162.685 233.712 162.743 233.707 162.786L232.785 162.704C232.781 162.631 232.786 162.533 232.798 162.408C232.808 162.283 232.842 162.131 232.898 161.953C232.984 161.682 233.126 161.435 233.325 161.213C233.523 160.993 233.768 160.836 234.06 160.742C234.351 160.651 234.678 160.664 235.04 160.781L241.238 162.778Z" fill="black"/>
<path d="M233.373 175.212L233.489 174.279C233.65 174.286 233.817 174.267 233.99 174.22C234.165 174.178 234.333 174.089 234.492 173.953C234.651 173.818 234.787 173.615 234.901 173.345C235.057 172.976 235.102 172.632 235.036 172.314C234.972 171.998 234.81 171.785 234.552 171.675C234.322 171.576 234.105 171.582 233.901 171.692C233.698 171.803 233.476 172.017 233.237 172.334L232.64 173.135C232.282 173.619 231.912 173.935 231.532 174.084C231.154 174.234 230.755 174.218 230.335 174.038C229.99 173.89 229.724 173.658 229.536 173.343C229.348 173.03 229.25 172.664 229.242 172.243C229.235 171.822 229.33 171.378 229.528 170.909C229.787 170.294 230.135 169.843 230.572 169.554C231.008 169.265 231.505 169.177 232.062 169.289L231.91 170.263C231.551 170.207 231.241 170.262 230.981 170.425C230.72 170.591 230.509 170.864 230.349 171.243C230.167 171.675 230.113 172.057 230.189 172.39C230.266 172.726 230.434 172.949 230.692 173.06C230.901 173.15 231.107 173.151 231.31 173.065C231.515 172.98 231.717 172.801 231.916 172.528L232.575 171.624C232.939 171.128 233.312 170.809 233.696 170.667C234.081 170.53 234.481 170.55 234.896 170.728C235.235 170.874 235.495 171.098 235.676 171.401C235.855 171.707 235.949 172.058 235.957 172.454C235.965 172.853 235.879 173.264 235.7 173.688C235.448 174.285 235.12 174.697 234.715 174.926C234.309 175.156 233.862 175.252 233.373 175.212Z" fill="black"/>
<path d="M217.874 187.726C218.141 187.32 218.422 187.005 218.717 186.782C219.011 186.558 219.305 186.404 219.601 186.321C219.892 186.239 220.17 186.204 220.434 186.216L220.463 187.198C220.314 187.208 220.137 187.228 219.933 187.26C219.727 187.289 219.51 187.374 219.283 187.513C219.052 187.652 218.829 187.887 218.612 188.217C218.322 188.659 218.189 189.095 218.214 189.524C218.238 189.953 218.477 190.319 218.931 190.622L220.037 191.359L220.084 191.288C220.025 191.16 219.96 190.99 219.888 190.779C219.817 190.571 219.794 190.323 219.819 190.036C219.845 189.753 219.975 189.433 220.209 189.077C220.499 188.635 220.863 188.308 221.301 188.095C221.738 187.884 222.222 187.809 222.754 187.87C223.283 187.932 223.832 188.153 224.399 188.531C224.957 188.903 225.378 189.325 225.662 189.798C225.949 190.273 226.091 190.761 226.087 191.264C226.086 191.769 225.934 192.251 225.632 192.712C225.398 193.068 225.154 193.312 224.898 193.442C224.644 193.576 224.406 193.65 224.184 193.662C223.962 193.678 223.784 193.686 223.649 193.685L223.593 193.77L224.458 194.347L223.925 195.159L218.323 191.425C217.855 191.113 217.544 190.753 217.391 190.343C217.234 189.935 217.205 189.506 217.303 189.056C217.397 188.606 217.588 188.163 217.874 187.726ZM220.886 189.692C220.665 190.029 220.555 190.366 220.556 190.701C220.557 191.036 220.662 191.361 220.87 191.674C221.079 191.987 221.385 192.278 221.787 192.546C222.179 192.807 222.564 192.979 222.942 193.06C223.321 193.141 223.671 193.122 223.994 193.003C224.317 192.884 224.59 192.653 224.815 192.311C225.048 191.954 225.153 191.598 225.129 191.24C225.104 190.885 224.979 190.548 224.754 190.227C224.528 189.909 224.23 189.627 223.862 189.381C223.483 189.129 223.11 188.966 222.741 188.891C222.373 188.82 222.03 188.847 221.71 188.971C221.391 189.1 221.116 189.341 220.886 189.692Z" fill="black"/>
<path d="M212.492 199.23C212.892 198.742 213.343 198.41 213.847 198.234C214.351 198.062 214.875 198.041 215.418 198.171C215.961 198.305 216.491 198.587 217.006 199.016C217.522 199.444 217.899 199.917 218.137 200.433C218.376 200.953 218.466 201.475 218.408 201.999C218.35 202.528 218.134 203.02 217.76 203.478C217.544 203.742 217.287 203.966 216.989 204.15C216.691 204.335 216.358 204.451 215.989 204.499C215.621 204.548 215.226 204.502 214.802 204.36C214.379 204.218 213.932 203.952 213.463 203.562L213.135 203.289L216.33 199.384L216.998 199.94L214.451 203.054C214.735 203.29 215.035 203.443 215.351 203.514C215.666 203.587 215.973 203.573 216.273 203.471C216.571 203.372 216.835 203.182 217.065 202.9C217.319 202.59 217.462 202.258 217.494 201.905C217.527 201.555 217.472 201.219 217.328 200.896C217.185 200.574 216.974 200.297 216.697 200.066L216.251 199.696C215.871 199.38 215.495 199.178 215.123 199.09C214.751 199.006 214.399 199.026 214.067 199.149C213.738 199.273 213.444 199.493 213.187 199.807C213.02 200.012 212.897 200.22 212.819 200.432C212.741 200.648 212.711 200.865 212.727 201.082C212.746 201.301 212.816 201.517 212.937 201.728L212.112 202.305C211.923 202.016 211.81 201.697 211.77 201.35C211.733 201.006 211.774 200.651 211.891 200.287C212.011 199.925 212.212 199.573 212.492 199.23Z" fill="black"/>
<path d="M208.844 209.428L206.099 206.605L206.814 205.898L211.377 210.591L210.686 211.274L209.973 210.54L209.913 210.6C210.035 210.947 210.056 211.302 209.974 211.666C209.894 212.032 209.679 212.389 209.327 212.737C209.012 213.048 208.673 213.256 208.309 213.359C207.948 213.464 207.574 213.45 207.187 213.317C206.803 213.186 206.416 212.921 206.028 212.522L203.129 209.54L203.844 208.833L206.696 211.766C207.054 212.135 207.428 212.328 207.818 212.346C208.21 212.366 208.572 212.213 208.903 211.885C209.132 211.66 209.287 211.408 209.37 211.13C209.451 210.855 209.45 210.571 209.367 210.277C209.283 209.984 209.109 209.701 208.844 209.428Z" fill="black"/>
<path d="M195.469 216.006C195.962 215.612 196.473 215.382 197.003 215.316C197.532 215.253 198.048 215.343 198.552 215.584C199.055 215.829 199.514 216.216 199.928 216.743C200.342 217.27 200.611 217.811 200.736 218.366C200.861 218.924 200.84 219.454 200.673 219.954C200.505 220.459 200.191 220.895 199.729 221.264C199.463 221.476 199.164 221.642 198.834 221.76C198.504 221.878 198.154 221.921 197.783 221.89C197.414 221.862 197.037 221.734 196.652 221.506C196.268 221.279 195.887 220.925 195.51 220.445L195.246 220.11L199.189 216.962L199.726 217.645L196.583 220.155C196.811 220.446 197.072 220.659 197.366 220.794C197.659 220.932 197.962 220.982 198.276 220.946C198.589 220.911 198.887 220.78 199.171 220.553C199.484 220.303 199.693 220.009 199.799 219.67C199.905 219.335 199.921 218.995 199.848 218.649C199.776 218.304 199.628 217.989 199.405 217.705L199.047 217.25C198.742 216.861 198.416 216.585 198.071 216.421C197.725 216.261 197.377 216.206 197.026 216.257C196.678 216.31 196.345 216.463 196.027 216.716C195.821 216.881 195.657 217.059 195.536 217.25C195.415 217.445 195.34 217.65 195.311 217.866C195.283 218.085 195.306 218.31 195.38 218.541L194.452 218.933C194.329 218.61 194.284 218.275 194.318 217.928C194.354 217.583 194.468 217.245 194.66 216.914C194.853 216.585 195.123 216.282 195.469 216.006Z" fill="black"/>
<path d="M188.498 221.31L192.047 226.809L191.234 227.342L190.698 226.511L190.641 226.549C190.717 226.886 190.679 227.226 190.527 227.567C190.375 227.907 190.135 228.185 189.807 228.4C189.746 228.441 189.668 228.49 189.573 228.549C189.479 228.607 189.407 228.65 189.356 228.676L188.802 227.817C188.835 227.805 188.907 227.773 189.019 227.72C189.129 227.672 189.24 227.611 189.352 227.537C189.618 227.363 189.819 227.151 189.956 226.902C190.092 226.656 190.157 226.396 190.152 226.121C190.146 225.849 190.063 225.59 189.903 225.341L187.657 221.861L188.498 221.31Z" fill="black"/>
<path d="M178.598 227.105C178.965 226.911 179.333 226.804 179.704 226.784C180.077 226.767 180.42 226.844 180.733 227.015C181.048 227.189 181.304 227.465 181.501 227.843C181.674 228.176 181.749 228.48 181.727 228.755C181.705 229.034 181.616 229.29 181.459 229.524C181.303 229.758 181.108 229.974 180.874 230.172C180.64 230.373 180.397 230.563 180.147 230.74C179.819 230.972 179.552 231.157 179.345 231.295C179.138 231.437 178.999 231.564 178.928 231.675C178.856 231.788 178.857 231.916 178.932 232.059L178.947 232.089C179.142 232.462 179.394 232.698 179.705 232.797C180.014 232.897 180.373 232.839 180.782 232.622C181.206 232.397 181.49 232.128 181.634 231.814C181.778 231.5 181.844 231.211 181.831 230.947L182.832 230.803C182.865 231.235 182.808 231.616 182.659 231.946C182.509 232.279 182.305 232.564 182.047 232.8C181.788 233.041 181.513 233.238 181.222 233.392C181.036 233.491 180.811 233.581 180.546 233.663C180.28 233.749 179.999 233.784 179.702 233.768C179.403 233.753 179.106 233.648 178.812 233.453C178.519 233.259 178.252 232.931 178.011 232.47L176.018 228.645L176.907 228.175L177.316 228.961L177.362 228.937C177.356 228.779 177.386 228.591 177.452 228.373C177.518 228.155 177.641 227.933 177.822 227.709C178.003 227.484 178.262 227.283 178.598 227.105ZM178.88 227.978C178.529 228.164 178.269 228.39 178.1 228.656C177.929 228.924 177.839 229.2 177.83 229.484C177.818 229.77 177.876 230.034 178.002 230.276L178.427 231.092C178.441 231.027 178.503 230.941 178.611 230.835C178.718 230.734 178.847 230.625 178.998 230.51C179.148 230.398 179.296 230.291 179.441 230.188C179.585 230.089 179.702 230.008 179.79 229.945C180.006 229.793 180.196 229.629 180.361 229.455C180.525 229.284 180.634 229.1 180.688 228.901C180.74 228.706 180.707 228.495 180.589 228.269C180.427 227.959 180.191 227.785 179.88 227.747C179.567 227.713 179.234 227.79 178.88 227.978Z" fill="black"/>
<path d="M169.908 238.564L169.586 237.775L172.718 236.474L173.041 237.263L169.908 238.564ZM172.721 239.094L171.792 239.479L169.432 233.705C169.324 233.442 169.206 233.26 169.076 233.16C168.945 233.064 168.809 233.019 168.67 233.024C168.53 233.033 168.391 233.066 168.255 233.123C168.153 233.166 168.071 233.206 168.01 233.243C167.949 233.284 167.901 233.316 167.865 233.34L167.334 232.583C167.388 232.533 167.466 232.473 167.569 232.402C167.671 232.329 167.809 232.256 167.982 232.184C168.244 232.075 168.524 232.025 168.823 232.034C169.118 232.043 169.396 232.129 169.656 232.292C169.913 232.456 170.113 232.714 170.257 233.066L172.721 239.094Z" fill="black"/>
<path d="M158.578 235.494C159.143 235.322 159.679 235.305 160.187 235.444C160.692 235.584 161.136 235.86 161.521 236.272C161.902 236.684 162.19 237.214 162.385 237.861C162.58 238.515 162.633 239.121 162.543 239.68C162.45 240.24 162.232 240.719 161.889 241.118C161.543 241.517 161.087 241.803 160.522 241.976C159.957 242.148 159.422 242.164 158.917 242.024C158.41 241.885 157.965 241.607 157.582 241.192C157.197 240.778 156.907 240.245 156.711 239.592C156.516 238.944 156.466 238.342 156.56 237.784C156.651 237.228 156.87 236.75 157.215 236.35C157.558 235.952 158.013 235.666 158.578 235.494ZM158.837 236.359C158.408 236.49 158.088 236.708 157.877 237.013C157.666 237.318 157.548 237.67 157.522 238.07C157.497 238.47 157.547 238.879 157.673 239.298C157.798 239.717 157.982 240.088 158.224 240.409C158.465 240.73 158.758 240.96 159.103 241.099C159.447 241.237 159.833 241.241 160.263 241.11C160.692 240.979 161.012 240.76 161.222 240.452C161.432 240.145 161.55 239.79 161.574 239.387C161.599 238.985 161.548 238.574 161.423 238.155C161.297 237.736 161.114 237.367 160.873 237.048C160.632 236.73 160.34 236.503 159.996 236.367C159.653 236.231 159.267 236.228 158.837 236.359Z" fill="black"/>
<path d="M149.152 238.107L150.42 244.529L149.467 244.72L149.276 243.75L149.209 243.764C149.155 244.105 148.994 244.405 148.727 244.664C148.459 244.924 148.134 245.092 147.749 245.169C147.677 245.184 147.586 245.201 147.477 245.22C147.368 245.239 147.285 245.251 147.228 245.256L147.03 244.253C147.065 244.255 147.144 244.252 147.267 244.245C147.388 244.241 147.514 244.226 147.645 244.199C147.956 244.137 148.222 244.015 148.441 243.835C148.658 243.658 148.815 243.441 148.912 243.184C149.007 242.93 149.026 242.659 148.968 242.369L148.166 238.305L149.152 238.107Z" fill="black"/>
</svg>
