<svg viewBox="0 0 117 118" fill="none" xmlns="http://www.w3.org/2000/svg" xmlns:anim="http://www.w3.org/2000/anim" anim="" anim:transform-origin="50% 50%" anim:duration="0.5" anim:ease="power1.inOut">
    <path id="f4201c65224377cf06ffdbf01b8172c1" d="M58.5 0.666656C50.8943 0.666656 43.363 2.17549 36.3362 5.10702C29.3095 8.03854 22.9248 12.3353 17.5467 17.7521C6.68523 28.6917 0.583313 43.529 0.583313 59C0.583313 74.4709 6.68523 89.3083 17.5467 100.248C22.9248 105.665 29.3095 109.961 36.3362 112.893C43.363 115.824 50.8943 117.333 58.5 117.333C73.8604 117.333 88.5918 111.188 99.4533 100.248C110.315 89.3083 116.417 74.4709 116.417 59C116.417 51.3395 114.919 43.7541 112.008 36.6768C109.097 29.5995 104.831 23.1688 99.4533 17.7521C94.0752 12.3353 87.6905 8.03854 80.6637 5.10702C73.637 2.17549 66.1057 0.666656 58.5 0.666656ZM29.9471 95.6333C32.4375 90.3833 47.6116 85.25 58.5 85.25C69.3883 85.25 84.5625 90.3833 87.0529 95.6333C78.941 102.143 68.8721 105.682 58.5 105.667C47.7275 105.667 37.8237 101.933 29.9471 95.6333ZM95.335 87.175C87.0529 77.025 66.9558 73.5833 58.5 73.5833C50.0441 73.5833 29.9471 77.025 21.665 87.175C15.5037 79.0936 12.1647 69.1891 12.1666 59C12.1666 33.275 32.9587 12.3333 58.5 12.3333C84.0412 12.3333 104.833 33.275 104.833 59C104.833 69.6167 101.242 79.4167 95.335 87.175ZM58.5 24C47.2641 24 38.2291 33.1 38.2291 44.4167C38.2291 55.7333 47.2641 64.8333 58.5 64.8333C69.7358 64.8333 78.7708 55.7333 78.7708 44.4167C78.7708 33.1 69.7358 24 58.5 24ZM58.5 53.1667C56.1959 53.1667 53.9862 52.2448 52.357 50.6038C50.7278 48.9629 49.8125 46.7373 49.8125 44.4167C49.8125 42.096 50.7278 39.8704 52.357 38.2295C53.9862 36.5885 56.1959 35.6667 58.5 35.6667C60.8041 35.6667 63.0138 36.5885 64.643 38.2295C66.2722 39.8704 67.1875 42.096 67.1875 44.4167C67.1875 46.7373 66.2722 48.9629 64.643 50.6038C63.0138 52.2448 60.8041 53.1667 58.5 53.1667Z" fill="#6252F2"></path>
</svg>